<svg id="svg" version="1.1" xmlns="http://www.w3.org/2000/svg" xmlns:xlink="http://www.w3.org/1999/xlink" width="400" height="400" viewBox="0, 0, 400,400"><g id="svgg"><path id="path0" d="M191.016 42.598 C 119.746 46.016,56.874 100.359,42.805 170.703 C 40.406 182.702,39.496 205.770,40.950 217.773 C 53.202 318.952,157.895 383.357,253.674 348.639 C 359.302 310.350,393.486 182.695,320.791 97.996 C 290.879 63.145,241.666 40.687,198.633 42.251 C 197.773 42.283,194.346 42.439,191.016 42.598 M219.769 55.792 C 249.426 60.549,275.901 72.680,296.680 91.034 C 314.049 106.377,330.363 129.184,337.322 147.852 C 351.431 185.696,350.111 227.965,333.789 260.991 C 331.750 265.117,332.048 264.985,328.597 263.291 C 293.488 246.063,282.248 240.188,269.922 232.626 C 267.881 231.374,264.643 229.388,262.726 228.213 C 260.809 227.037,254.532 222.977,248.777 219.190 C 220.299 200.452,224.008 202.068,218.648 206.055 C 216.482 207.666,214.519 208.984,214.286 208.984 C 214.053 208.984,211.578 205.605,208.786 201.474 C 199.499 187.729,198.165 187.431,191.406 197.585 C 187.853 202.924,183.610 208.781,183.194 208.921 C 182.980 208.993,181.044 207.787,178.893 206.240 C 176.089 204.225,174.735 203.478,174.112 203.604 C 173.633 203.701,165.068 209.190,155.078 215.803 C 132.377 230.829,132.533 230.728,126.808 234.157 C 114.518 241.520,106.571 245.773,88.672 254.567 C 78.037 259.792,69.031 264.241,68.657 264.455 C 66.751 265.547,58.682 245.878,56.270 234.262 C 51.673 212.125,51.145 196.505,54.320 176.612 C 56.273 164.370,61.188 148.502,65.858 139.355 C 66.159 138.765,66.696 137.710,67.051 137.012 C 89.315 93.151,132.811 62.021,180.664 55.699 C 183.242 55.358,185.879 55.009,186.523 54.923 C 190.618 54.378,214.909 55.013,219.769 55.792 M201.505 209.133 C 204.615 214.632,209.440 223.443,223.244 248.828 C 228.559 258.604,235.527 271.300,238.729 277.042 C 241.930 282.784,244.665 287.794,244.807 288.175 C 245.120 289.016,240.622 285.065,214.583 261.621 C 211.302 258.667,208.479 256.250,208.310 256.250 C 208.048 256.250,198.610 284.104,197.221 288.977 C 196.416 291.800,196.176 290.407,195.722 280.273 C 195.481 274.902,195.049 265.183,194.761 258.675 C 194.474 252.167,194.164 246.768,194.072 246.676 C 193.981 246.585,190.048 249.808,185.332 253.839 C 176.869 261.073,163.623 272.220,154.492 279.792 C 142.378 289.837,142.332 289.868,144.455 286.668 C 145.078 285.729,146.434 283.643,147.470 282.031 C 148.505 280.420,154.301 271.631,160.348 262.500 C 166.396 253.369,174.040 241.768,177.335 236.719 C 180.630 231.670,186.081 223.320,189.450 218.164 C 192.818 213.008,196.175 207.783,196.908 206.554 C 198.621 203.684,198.332 203.522,201.505 209.133 M177.581 215.400 C 177.299 216.526,174.569 220.810,161.322 240.923 C 146.397 263.581,146.357 263.634,147.434 259.479 C 148.031 257.176,149.219 251.291,149.219 250.637 C 149.219 250.111,147.399 251.581,130.664 265.622 C 114.825 278.911,112.757 280.612,109.962 282.650 C 108.442 283.758,108.418 283.763,109.071 282.813 C 109.439 282.275,111.980 278.320,114.717 274.023 C 117.453 269.727,120.801 264.558,122.156 262.538 C 125.024 258.262,125.028 258.356,122.037 259.391 C 116.576 261.280,96.965 266.627,96.651 266.313 C 96.496 266.158,105.533 260.110,111.523 256.360 C 116.212 253.425,117.756 252.438,133.398 242.377 C 139.199 238.647,145.264 234.757,146.875 233.733 C 148.486 232.709,154.375 228.890,159.961 225.245 C 177.251 213.963,178.055 213.513,177.581 215.400 M224.714 216.347 C 226.053 217.174,236.553 223.904,248.047 231.302 C 259.541 238.701,272.109 246.757,275.977 249.205 C 281.868 252.934,301.391 265.491,301.921 265.892 C 302.981 266.696,293.864 264.444,282.617 261.126 C 279.180 260.111,276.040 259.189,275.639 259.076 C 274.690 258.808,274.402 258.298,282.357 270.964 C 289.665 282.600,290.269 283.627,289.419 282.973 C 284.748 279.377,274.145 270.476,266.455 263.695 C 255.279 253.840,253.759 252.569,254.065 253.336 C 254.232 253.757,255.067 256.211,255.920 258.789 C 256.772 261.367,257.558 263.740,257.665 264.063 C 258.042 265.194,245.031 248.138,227.719 224.805 C 220.607 215.219,219.966 213.415,224.714 216.347 M101.392 289.657 C 108.468 290.199,119.707 291.075,126.367 291.603 C 133.027 292.132,143.662 292.934,150.000 293.386 C 163.510 294.348,164.751 294.783,163.577 298.151 C 162.978 299.870,162.034 300.135,157.443 299.877 C 151.043 299.516,137.099 298.515,126.563 297.659 C 121.299 297.232,111.481 296.436,104.745 295.890 C 88.505 294.573,87.395 294.291,86.085 291.158 C 84.849 288.200,83.759 288.307,101.392 289.657 M313.672 289.668 C 313.672 294.148,312.574 294.452,289.844 296.272 C 280.283 297.038,271.846 297.753,271.094 297.862 C 269.013 298.163,241.517 299.993,239.025 299.997 C 236.561 300.000,235.721 299.405,235.313 297.364 C 234.880 295.203,236.281 294.284,240.463 293.984 C 242.378 293.847,248.955 293.383,255.078 292.954 C 261.201 292.524,271.660 291.727,278.320 291.183 C 314.397 288.232,313.672 288.263,313.672 289.668 M219.770 296.227 C 220.530 296.881,220.833 297.512,220.833 298.438 C 220.833 299.363,220.530 299.994,219.770 300.648 L 218.706 301.563 199.640 301.563 C 181.238 301.563,180.540 301.536,179.592 300.790 C 177.958 299.505,178.073 296.259,179.777 295.574 C 180.050 295.464,188.921 295.360,199.490 295.343 L 218.706 295.313 219.770 296.227 M111.133 307.804 C 113.496 308.010,122.637 308.632,131.445 309.187 C 148.793 310.279,149.037 310.325,149.642 312.588 C 150.590 316.131,148.838 316.550,136.860 315.640 C 131.304 315.218,124.209 314.684,121.094 314.454 C 107.030 313.415,104.737 312.626,103.695 308.472 C 103.381 307.223,103.924 307.174,111.133 307.804 M295.520 308.496 C 294.401 312.980,293.033 313.376,273.633 314.825 C 267.832 315.258,260.566 315.801,257.486 316.032 C 251.407 316.488,250.356 316.264,249.654 314.368 C 248.602 311.523,250.128 310.482,255.969 310.059 C 283.451 308.068,291.546 307.510,293.499 307.469 L 295.788 307.422 295.520 308.496 M232.324 312.302 C 233.502 313.673,233.453 315.254,232.195 316.436 L 231.187 317.383 199.750 317.487 L 168.313 317.592 167.164 316.443 C 165.880 315.159,165.675 313.569,166.631 312.305 C 167.210 311.538,167.809 311.519,197.771 311.305 C 233.589 311.049,231.186 310.980,232.324 312.302 M144.141 328.094 C 147.045 330.175,144.568 331.699,140.188 330.527 C 137.288 329.751,133.594 328.001,133.594 327.404 C 133.594 326.767,143.161 327.393,144.141 328.094 M265.575 327.993 C 264.570 329.210,258.986 331.234,256.604 331.245 C 254.373 331.256,253.808 328.904,255.767 327.763 C 257.052 327.014,266.206 327.229,265.575 327.993 M247.429 328.560 C 248.897 329.715,248.749 332.162,247.139 333.359 L 246.036 334.180 199.417 334.180 L 152.797 334.180 151.810 333.252 C 149.992 331.544,150.129 328.912,152.076 328.128 C 152.550 327.937,173.717 327.773,199.654 327.759 L 246.379 327.734 247.429 328.560 " stroke="none" fill="#06162e" fill-rule="evenodd"></path><path id="path1" d="M179.297 55.845 C 173.473 56.744,171.323 57.182,164.355 58.886 C 158.217 60.387,158.090 60.474,158.968 62.579 C 159.173 63.073,161.474 70.068,164.080 78.125 C 166.686 86.182,169.497 94.795,170.326 97.266 C 171.925 102.027,177.227 118.536,180.300 128.320 C 182.598 135.636,182.392 135.399,185.797 134.645 C 187.271 134.319,189.386 133.935,190.497 133.791 C 194.172 133.314,194.083 135.953,191.417 106.636 C 188.847 78.375,187.793 67.568,186.905 60.363 C 186.588 57.792,186.328 55.550,186.328 55.383 C 186.328 54.935,184.344 55.065,179.297 55.845 M213.153 55.371 C 213.058 55.532,212.863 56.807,212.720 58.203 C 212.577 59.600,212.201 62.939,211.885 65.625 C 211.568 68.311,210.703 77.100,209.964 85.156 C 209.224 93.213,208.180 104.551,207.644 110.352 C 205.317 135.543,205.071 133.268,210.205 133.970 C 212.164 134.238,214.282 134.605,214.913 134.786 C 216.863 135.345,217.098 134.977,219.375 127.789 C 225.092 109.747,231.395 90.279,236.908 73.633 C 239.892 64.621,241.039 60.607,240.691 60.394 C 238.185 58.853,213.734 54.393,213.153 55.371 M264.128 69.714 C 264.444 70.046,262.819 73.546,260.833 76.809 C 260.031 78.126,259.375 79.278,259.375 79.368 C 259.375 79.458,258.132 81.808,256.612 84.590 C 255.093 87.372,252.259 92.725,250.314 96.484 C 248.369 100.244,245.591 105.605,244.140 108.398 C 235.728 124.585,229.297 137.583,229.297 138.396 C 229.297 139.163,229.798 139.577,232.129 140.737 C 233.687 141.512,235.870 142.678,236.981 143.329 C 239.453 144.777,239.135 144.994,244.079 138.477 C 246.035 135.898,248.387 132.827,249.306 131.651 C 251.957 128.258,265.358 111.249,273.756 100.618 C 277.985 95.265,282.551 89.483,283.903 87.769 C 287.333 83.420,287.306 83.497,285.822 82.388 C 282.945 80.238,276.655 76.229,272.852 74.119 C 269.728 72.387,263.843 69.416,264.128 69.714 M129.109 72.897 C 121.246 77.188,112.500 82.833,112.500 83.616 C 112.500 83.802,116.683 89.191,121.796 95.591 C 132.476 108.960,135.262 112.466,136.940 114.648 C 137.601 115.508,141.909 121.045,146.512 126.953 C 151.116 132.862,155.795 138.933,156.910 140.445 C 160.164 144.861,160.078 144.818,162.555 143.254 C 163.707 142.527,165.837 141.383,167.291 140.711 C 170.846 139.067,170.852 139.004,167.993 133.246 C 164.945 127.108,146.348 91.083,144.176 87.109 C 143.296 85.498,140.862 80.976,138.768 77.060 C 136.674 73.145,134.871 69.937,134.760 69.932 C 134.650 69.926,132.107 71.261,129.109 72.897 M92.481 101.059 C 88.423 105.325,85.478 108.881,79.142 117.165 C 78.814 117.593,78.828 117.658,79.199 117.435 C 79.497 117.256,80.563 117.812,81.933 118.860 C 83.169 119.805,86.553 122.223,89.453 124.233 C 92.354 126.243,97.891 130.084,101.758 132.768 C 114.662 141.726,141.920 159.800,142.351 159.684 C 143.615 159.346,149.654 152.376,149.279 151.688 C 148.825 150.857,139.824 141.980,125.781 128.517 C 120.303 123.264,111.188 114.479,105.526 108.995 C 99.865 103.511,95.097 98.972,94.932 98.910 C 94.767 98.848,93.664 99.815,92.481 101.059 M301.562 101.666 C 299.950 103.221,293.537 109.414,287.311 115.430 C 281.085 121.445,273.442 128.828,270.325 131.836 C 250.805 150.675,250.033 151.451,250.012 152.251 C 249.997 152.855,256.610 159.766,257.204 159.766 C 257.861 159.766,281.170 144.097,302.734 129.160 C 320.110 117.125,320.147 117.096,319.659 116.285 C 319.287 115.666,315.888 111.230,313.916 108.789 C 310.676 104.779,305.193 98.824,304.750 98.834 C 304.608 98.838,303.173 100.112,301.562 101.666 M66.387 138.309 C 65.968 138.897,65.625 139.478,65.625 139.600 C 65.625 139.721,65.201 140.749,64.682 141.883 C 62.074 147.591,57.609 160.260,58.145 160.434 C 60.214 161.107,79.634 166.979,82.227 167.716 C 102.939 173.603,128.658 180.477,129.954 180.472 C 130.834 180.469,135.547 172.211,135.547 170.672 C 135.547 169.729,134.900 169.380,123.828 164.351 C 104.487 155.565,92.127 149.704,76.641 141.976 L 67.149 137.239 66.387 138.309 M328.125 139.447 C 319.228 144.051,298.600 153.981,284.570 160.414 C 261.628 170.933,263.155 170.030,264.482 172.305 C 264.909 173.035,265.969 175.094,266.838 176.879 C 268.685 180.671,268.895 180.797,272.034 179.981 C 295.883 173.784,316.395 168.010,338.974 161.138 C 340.106 160.794,341.186 160.606,341.373 160.722 C 342.282 161.284,337.384 147.480,334.484 141.309 C 332.399 136.871,332.850 137.003,328.125 139.447 M192.188 142.617 C 154.818 148.491,130.203 180.535,134.757 217.383 C 135.242 221.307,136.445 227.200,136.841 227.596 C 136.958 227.713,145.196 222.402,155.148 215.794 C 165.100 209.186,173.633 203.701,174.112 203.604 C 174.735 203.478,176.089 204.225,178.893 206.240 C 181.044 207.787,182.980 208.993,183.194 208.921 C 183.610 208.781,187.853 202.924,191.406 197.585 C 198.165 187.431,199.499 187.729,208.786 201.474 C 211.578 205.605,214.053 208.984,214.286 208.984 C 214.519 208.984,216.482 207.666,218.648 206.055 C 224.013 202.064,220.226 200.396,249.365 219.580 C 262.315 228.105,262.106 227.982,262.506 227.334 C 265.948 221.765,265.418 198.635,261.584 187.109 C 252.061 158.474,220.408 138.180,192.188 142.617 M52.805 188.042 C 52.159 194.240,52.178 209.016,52.832 208.794 C 53.101 208.703,56.660 208.439,60.742 208.207 C 64.824 207.975,76.250 207.266,86.133 206.630 C 96.016 205.995,108.496 205.206,113.867 204.878 C 127.614 204.037,126.561 204.403,126.565 200.456 C 126.566 199.239,126.734 197.225,126.937 195.981 C 127.573 192.102,128.399 192.453,115.248 191.010 C 105.033 189.888,100.741 189.382,82.227 187.115 C 77.070 186.484,68.809 185.519,63.867 184.971 C 58.926 184.423,54.519 183.894,54.075 183.795 C 53.315 183.625,53.240 183.876,52.805 188.042 M341.992 184.195 C 341.777 184.276,338.262 184.709,334.180 185.156 C 330.098 185.604,324.121 186.310,320.898 186.727 C 311.371 187.959,289.462 190.533,281.104 191.403 C 272.431 192.306,271.684 192.526,272.027 194.078 C 272.154 194.649,272.363 196.611,272.492 198.438 C 272.837 203.323,273.210 204.297,274.737 204.296 C 275.927 204.294,284.365 204.799,304.492 206.076 C 318.640 206.973,337.132 208.128,342.248 208.433 L 346.801 208.704 347.082 206.084 C 347.368 203.405,346.707 186.450,346.254 184.863 C 346.014 184.026,343.482 183.628,341.992 184.195 M122.070 217.169 C 121.426 217.330,118.174 218.028,114.844 218.720 C 106.655 220.421,96.713 222.589,82.227 225.831 C 75.566 227.321,67.305 229.156,63.867 229.907 C 55.818 231.666,55.813 231.668,56.105 233.289 C 57.086 238.735,62.244 254.446,63.497 255.804 C 63.568 255.881,66.493 254.707,69.996 253.197 C 73.500 251.686,81.201 248.486,87.109 246.086 C 105.586 238.580,114.387 234.728,117.699 232.698 C 119.459 231.619,122.342 229.879,124.107 228.830 C 128.111 226.452,127.922 226.853,127.156 222.347 C 126.153 216.455,125.913 216.210,122.070 217.169 M273.262 217.156 C 273.140 217.353,272.770 219.067,272.440 220.964 C 272.109 222.862,271.751 224.766,271.644 225.195 C 270.968 227.908,284.008 234.678,310.156 245.191 C 316.279 247.653,324.599 251.076,328.644 252.797 C 332.690 254.519,336.058 255.868,336.130 255.796 C 337.284 254.630,341.821 240.438,343.568 232.528 C 343.716 231.862,343.554 231.612,342.876 231.463 C 342.390 231.355,340.410 230.915,338.477 230.486 C 336.543 230.057,332.148 229.088,328.711 228.335 C 325.273 227.581,319.648 226.334,316.211 225.564 C 312.773 224.794,306.709 223.478,302.734 222.640 C 298.760 221.801,291.772 220.328,287.207 219.365 C 282.641 218.402,278.246 217.432,277.441 217.208 C 275.627 216.704,273.557 216.678,273.262 217.156 " stroke="none" fill="#ee3006" fill-rule="evenodd"></path><path id="path2" d="M0.000 200.000 L 0.000 400.000 200.000 400.000 L 400.000 400.000 400.000 200.000 L 400.000 0.000 200.000 0.000 L 0.000 0.000 0.000 200.000 M207.617 42.583 C 304.498 47.656,375.281 137.294,356.445 231.055 C 340.296 311.435,262.192 367.190,180.273 356.814 C 124.233 349.716,75.083 313.069,52.412 261.478 C 37.886 228.422,36.142 186.750,47.820 151.758 C 69.264 87.506,128.055 44.817,198.633 42.251 C 199.492 42.220,203.535 42.369,207.617 42.583 M187.012 54.957 C 186.192 55.171,186.202 54.662,186.905 60.363 C 187.793 67.568,188.847 78.375,191.417 106.636 C 194.083 135.953,194.172 133.314,190.497 133.791 C 189.386 133.935,187.271 134.319,185.797 134.645 C 182.392 135.399,182.598 135.636,180.300 128.320 C 177.227 118.536,171.925 102.027,170.326 97.266 C 168.678 92.358,159.734 64.882,158.913 62.207 C 158.633 61.294,158.288 60.547,158.146 60.547 C 156.112 60.547,135.156 69.215,135.156 70.057 C 135.156 70.386,141.789 82.890,144.995 88.605 C 146.201 90.756,165.360 127.943,167.993 133.246 C 170.852 139.004,170.846 139.067,167.291 140.711 C 165.837 141.383,163.707 142.527,162.555 143.254 C 160.078 144.818,160.164 144.861,156.910 140.445 C 155.795 138.933,151.116 132.862,146.512 126.953 C 141.908 121.045,137.392 115.244,136.477 114.063 C 121.916 95.271,112.307 83.669,111.612 84.041 C 110.084 84.859,102.861 90.928,98.958 94.673 L 94.827 98.638 105.324 108.803 C 111.097 114.394,120.303 123.266,125.781 128.518 C 139.810 141.967,148.825 150.856,149.279 151.688 C 149.654 152.376,143.615 159.346,142.351 159.684 C 141.920 159.800,114.662 141.726,101.758 132.768 C 97.891 130.084,92.354 126.243,89.453 124.233 C 86.553 122.223,83.169 119.805,81.933 118.860 C 79.249 116.807,79.628 116.625,76.269 121.581 C 70.540 130.034,66.949 136.746,67.801 137.407 C 68.514 137.960,85.555 146.424,97.461 152.138 C 103.224 154.904,118.067 161.766,127.930 166.225 C 134.724 169.297,135.547 169.777,135.547 170.672 C 135.547 172.211,130.834 180.469,129.954 180.472 C 128.961 180.476,112.836 176.252,96.875 171.807 C 80.025 167.115,78.528 166.681,67.977 163.440 C 62.592 161.786,58.091 160.528,57.975 160.645 C 57.039 161.581,53.097 181.938,53.599 183.246 C 53.769 183.690,55.691 184.036,61.774 184.715 C 66.148 185.203,74.648 186.201,80.664 186.933 C 102.721 189.616,105.074 189.893,115.248 191.010 C 128.399 192.453,127.573 192.102,126.937 195.981 C 126.734 197.225,126.566 199.239,126.565 200.456 C 126.561 204.403,127.614 204.036,113.867 204.878 C 108.496 205.207,95.928 205.999,85.938 206.640 C 62.461 208.144,55.130 208.590,53.809 208.592 C 52.438 208.594,52.399 209.895,53.512 218.442 C 54.687 227.468,55.605 231.866,56.278 231.689 C 57.439 231.384,81.000 226.077,88.672 224.393 C 93.076 223.425,98.174 222.294,100.000 221.877 C 104.438 220.865,119.890 217.636,122.948 217.081 C 126.071 216.515,126.082 216.527,127.012 221.712 C 127.934 226.853,128.092 226.464,124.148 228.806 C 122.361 229.868,119.459 231.619,117.699 232.698 C 114.783 234.486,103.787 239.391,93.945 243.294 C 77.346 249.877,63.672 255.804,63.672 256.414 C 63.672 256.936,66.962 263.516,67.619 264.308 C 67.904 264.651,68.240 264.692,68.686 264.438 C 69.043 264.234,78.037 259.792,88.672 254.567 C 106.628 245.745,114.500 241.530,126.951 234.072 C 130.749 231.797,135.317 228.896,136.631 227.925 C 136.689 227.881,136.401 226.370,135.989 224.567 C 122.845 167.043,183.747 121.631,233.398 151.932 C 257.796 166.822,269.571 195.394,263.261 224.396 C 262.842 226.319,262.500 227.926,262.500 227.966 C 262.500 228.118,271.525 233.637,276.991 236.828 C 286.334 242.282,292.416 245.486,307.227 252.759 C 314.961 256.556,323.620 260.820,326.469 262.234 L 331.648 264.805 332.206 263.945 C 334.011 261.164,336.048 256.168,335.514 255.828 C 334.597 255.243,321.986 249.955,310.156 245.194 C 288.901 236.642,273.169 228.967,271.845 226.504 C 271.534 225.925,272.078 221.949,272.986 218.164 C 273.380 216.521,274.232 216.515,281.507 218.105 C 284.910 218.849,291.035 220.169,295.117 221.039 C 299.199 221.908,305.439 223.238,308.984 223.993 C 312.529 224.748,316.924 225.706,318.750 226.122 C 320.576 226.538,324.971 227.514,328.516 228.292 C 332.061 229.069,336.543 230.057,338.477 230.486 C 340.410 230.915,342.370 231.350,342.833 231.452 C 343.561 231.611,343.730 231.388,344.100 229.783 C 345.136 225.290,346.860 212.809,346.871 209.725 L 346.875 208.708 342.285 208.435 C 337.137 208.128,318.675 206.975,304.492 206.076 C 284.365 204.799,275.927 204.294,274.737 204.296 C 273.210 204.297,272.837 203.323,272.492 198.438 C 272.363 196.611,272.154 194.649,272.027 194.078 C 271.684 192.526,272.431 192.306,281.104 191.403 C 289.344 190.546,311.002 188.001,321.094 186.705 C 328.257 185.785,339.743 184.454,343.457 184.113 C 345.876 183.891,346.094 183.797,346.094 182.975 C 346.094 179.945,342.241 161.641,341.428 160.810 C 341.255 160.633,340.168 160.775,339.013 161.126 C 316.253 168.050,295.907 173.778,272.034 179.981 C 268.895 180.797,268.685 180.671,266.838 176.879 C 265.969 175.094,264.909 173.035,264.482 172.305 C 263.155 170.030,261.628 170.933,284.570 160.414 C 296.147 155.106,300.324 153.123,314.063 146.415 C 330.782 138.251,332.362 137.407,332.117 136.769 C 331.098 134.114,323.759 121.943,320.840 118.068 L 319.885 116.801 319.025 117.610 C 318.060 118.517,316.375 119.711,302.734 129.160 C 281.170 144.097,257.861 159.766,257.204 159.766 C 256.610 159.766,249.997 152.855,250.012 152.251 C 250.033 151.451,250.805 150.675,270.325 131.836 C 273.442 128.828,280.998 121.530,287.117 115.617 C 293.236 109.704,299.711 103.464,301.506 101.750 L 304.769 98.633 300.783 94.840 C 297.135 91.370,291.589 86.687,288.350 84.344 C 287.183 83.499,287.015 83.469,286.692 84.046 C 286.494 84.400,285.233 86.083,283.889 87.787 C 282.545 89.491,277.985 95.265,273.756 100.618 C 265.358 111.249,251.957 128.258,249.306 131.651 C 248.387 132.827,246.035 135.898,244.079 138.477 C 239.135 144.994,239.453 144.777,236.981 143.329 C 235.870 142.678,233.687 141.512,232.129 140.737 C 229.798 139.577,229.297 139.163,229.297 138.396 C 229.297 137.583,235.728 124.585,244.140 108.398 C 245.591 105.605,248.369 100.244,250.314 96.484 C 252.259 92.725,255.093 87.372,256.612 84.590 C 258.132 81.808,259.375 79.458,259.375 79.368 C 259.375 79.278,260.031 78.126,260.833 76.809 C 263.261 72.819,264.465 70.025,263.937 69.602 C 261.484 67.636,241.654 60.075,240.984 60.851 C 240.851 61.006,240.432 62.275,240.055 63.672 C 239.677 65.068,238.262 69.551,236.909 73.633 C 231.466 90.061,225.116 109.673,219.375 127.789 C 217.098 134.977,216.863 135.345,214.913 134.786 C 214.282 134.605,212.164 134.238,210.205 133.970 C 205.071 133.268,205.317 135.543,207.644 110.352 C 208.180 104.551,209.225 93.213,209.967 85.156 C 211.212 71.623,212.120 62.873,212.851 57.364 L 213.143 55.158 211.747 54.927 C 210.141 54.661,188.041 54.688,187.012 54.957 M196.908 206.555 C 196.175 207.784,192.818 213.008,189.450 218.164 C 186.081 223.320,180.630 231.670,177.335 236.719 C 174.040 241.768,166.396 253.369,160.348 262.500 C 154.301 271.631,148.505 280.420,147.470 282.031 C 146.434 283.643,145.078 285.729,144.455 286.668 C 142.332 289.868,142.378 289.837,154.492 279.792 C 163.623 272.220,176.869 261.073,185.332 253.839 C 190.048 249.808,193.979 246.583,194.069 246.673 C 194.220 246.824,194.650 255.514,195.721 280.076 C 196.136 289.602,196.467 291.994,197.035 289.579 C 197.665 286.901,208.033 256.250,208.310 256.250 C 208.479 256.250,211.302 258.667,214.584 261.621 C 240.604 285.043,245.117 289.008,244.807 288.175 C 244.665 287.794,241.930 282.784,238.729 277.042 C 235.527 271.300,228.558 258.604,223.242 248.828 C 203.562 212.645,199.078 204.570,198.580 204.421 C 198.394 204.366,197.642 205.326,196.908 206.555 M173.438 216.557 C 171.611 217.690,165.547 221.600,159.961 225.245 C 154.375 228.890,148.486 232.709,146.875 233.733 C 145.264 234.757,139.199 238.647,133.398 242.377 C 117.836 252.387,116.226 253.415,111.523 256.363 C 105.622 260.062,96.505 266.166,96.656 266.317 C 96.966 266.628,116.627 261.262,122.037 259.391 C 125.028 258.356,125.024 258.262,122.156 262.538 C 120.801 264.558,117.453 269.727,114.717 274.023 C 111.980 278.320,109.439 282.271,109.070 282.803 C 107.651 284.847,110.958 282.172,140.603 257.295 C 145.167 253.466,148.982 250.415,149.083 250.515 C 149.297 250.729,148.312 256.090,147.440 259.454 C 146.356 263.638,146.384 263.601,161.322 240.923 C 180.577 211.690,180.262 212.322,173.438 216.557 M221.484 215.368 C 221.484 215.871,224.686 220.717,227.719 224.805 C 246.380 249.956,258.084 265.252,257.606 263.867 C 256.361 260.259,253.906 252.936,253.906 252.830 C 253.906 252.684,257.328 255.646,266.455 263.695 C 274.145 270.476,284.748 279.377,289.419 282.973 C 290.269 283.627,289.665 282.600,282.357 270.964 C 274.402 258.298,274.690 258.808,275.639 259.076 C 276.040 259.189,279.180 260.111,282.617 261.126 C 293.864 264.444,302.981 266.696,301.921 265.892 C 301.391 265.491,281.868 252.934,275.977 249.205 C 272.109 246.757,259.541 238.701,248.047 231.302 C 220.102 213.315,221.484 214.144,221.484 215.368 M85.547 289.270 C 85.547 293.782,87.548 294.472,104.688 295.878 C 130.873 298.025,136.419 298.461,144.922 299.040 C 163.497 300.306,162.815 300.338,163.577 298.151 C 164.751 294.783,163.510 294.348,150.000 293.386 C 143.662 292.934,133.027 292.132,126.367 291.603 C 86.233 288.417,85.547 288.378,85.547 289.270 M299.414 289.484 C 294.473 289.873,284.980 290.638,278.320 291.183 C 271.660 291.727,261.201 292.524,255.078 292.954 C 248.955 293.383,242.378 293.847,240.463 293.984 C 235.458 294.343,233.700 296.531,236.198 299.291 C 237.125 300.316,248.178 299.832,273.242 297.669 C 278.184 297.242,287.852 296.438,294.727 295.881 C 310.683 294.589,311.768 294.346,313.106 291.758 C 314.888 288.312,314.688 288.279,299.414 289.484 M179.777 295.574 C 178.073 296.259,177.958 299.505,179.592 300.790 C 180.540 301.536,181.238 301.563,199.640 301.563 L 218.706 301.563 219.770 300.648 C 220.530 299.994,220.833 299.363,220.833 298.438 C 220.833 297.512,220.530 296.881,219.770 296.227 L 218.706 295.313 199.490 295.343 C 188.921 295.360,180.050 295.464,179.777 295.574 M103.695 308.472 C 104.737 312.626,107.030 313.415,121.094 314.454 C 124.209 314.684,131.304 315.218,136.860 315.640 C 148.838 316.550,150.590 316.131,149.642 312.588 C 149.037 310.325,148.793 310.279,131.445 309.187 C 122.637 308.632,113.496 308.010,111.133 307.804 C 103.924 307.174,103.381 307.223,103.695 308.472 M275.977 308.615 C 267.598 309.219,258.594 309.869,255.969 310.059 C 250.128 310.482,248.602 311.523,249.654 314.368 C 250.356 316.264,251.407 316.488,257.486 316.032 C 260.566 315.801,267.832 315.258,273.633 314.825 C 293.033 313.376,294.401 312.980,295.520 308.496 L 295.788 307.422 293.499 307.469 C 292.241 307.495,284.355 308.011,275.977 308.615 M197.771 311.305 C 167.809 311.519,167.210 311.538,166.631 312.305 C 165.675 313.569,165.880 315.159,167.164 316.443 L 168.313 317.592 199.750 317.487 L 231.187 317.383 232.195 316.436 C 234.245 314.510,232.861 311.367,229.882 311.183 C 229.023 311.130,214.573 311.185,197.771 311.305 M133.594 327.404 C 133.594 328.001,137.288 329.751,140.188 330.527 C 144.568 331.699,147.045 330.175,144.141 328.094 C 143.161 327.393,133.594 326.767,133.594 327.404 M255.767 327.763 C 253.808 328.904,254.373 331.256,256.604 331.245 C 258.986 331.234,264.570 329.210,265.575 327.993 C 266.206 327.229,257.052 327.014,255.767 327.763 M152.076 328.128 C 150.129 328.912,149.992 331.544,151.810 333.252 L 152.797 334.180 199.417 334.180 L 246.036 334.180 247.139 333.359 C 248.749 332.162,248.897 329.715,247.429 328.560 L 246.379 327.734 199.654 327.759 C 173.717 327.773,152.550 327.937,152.076 328.128 " stroke="none" fill="#fbfbfa" fill-rule="evenodd"></path></g></svg>